<svg width="826" height="225" viewBox="0 0 826 225" fill="none" xmlns="http://www.w3.org/2000/svg">
<path d="M30.3737 32.5V175H13.0969V32.5H30.3737ZM91.7711 74.619L47.9291 121.469L23.4072 146.889L22.0139 128.614L39.5694 107.647L70.7792 74.619H91.7711ZM76.0736 175L40.2196 127.129L49.1366 111.821L96.3226 175H76.0736ZM126.603 94.5655V175H109.327V74.619H125.675L126.603 94.5655ZM123.074 121.006L115.086 120.728C115.147 113.863 116.045 107.523 117.779 101.709C119.513 95.8335 122.083 90.731 125.489 86.4015C128.895 82.072 133.137 78.732 138.214 76.382C143.292 73.9695 149.175 72.7635 155.863 72.7635C160.569 72.7635 164.904 73.444 168.866 74.8045C172.83 76.1035 176.266 78.1755 179.177 81.0205C182.087 83.8655 184.348 87.5145 185.958 91.968C187.568 96.421 188.373 101.802 188.373 108.111V175H171.189V108.946C171.189 103.688 170.291 99.4825 168.495 96.328C166.761 93.174 164.284 90.8855 161.064 89.463C157.844 87.9785 154.067 87.2365 149.732 87.2365C144.654 87.2365 140.412 88.133 137.007 89.927C133.601 91.7205 130.876 94.1945 128.833 97.3485C126.789 100.503 125.303 104.121 124.374 108.203C123.507 112.224 123.074 116.491 123.074 121.006ZM188.187 111.543L176.669 115.069C176.731 109.564 177.629 104.275 179.363 99.204C181.158 94.1325 183.728 89.6175 187.072 85.659C190.478 81.701 194.658 78.5775 199.612 76.289C204.566 73.939 210.232 72.7635 216.61 72.7635C221.997 72.7635 226.766 73.475 230.915 74.8975C235.125 76.32 238.655 78.5155 241.503 81.4845C244.414 84.3915 246.612 88.133 248.098 92.71C249.584 97.287 250.328 102.729 250.328 109.038V175H233.051V108.853C233.051 103.225 232.153 98.864 230.357 95.7715C228.623 92.617 226.146 90.4215 222.926 89.1845C219.768 87.8855 215.99 87.2365 211.594 87.2365C207.817 87.2365 204.473 87.8855 201.563 89.1845C198.652 90.4835 196.206 92.277 194.225 94.5655C192.243 96.792 190.726 99.3585 189.673 102.266C188.682 105.173 188.187 108.265 188.187 111.543ZM295.006 32.5V175H277.729V32.5H295.006Z" fill="#7B00FF"/>
<path d="M523.749 74.619H539.353V172.866C539.353 181.711 537.561 189.256 533.966 195.503C530.377 201.75 525.361 206.481 518.918 209.697C512.541 212.975 505.172 214.615 496.813 214.615C493.345 214.615 489.258 214.058 484.552 212.945C479.907 211.893 475.325 210.068 470.805 207.47C466.346 204.935 462.6 201.503 459.565 197.173L468.575 186.968C472.786 192.04 477.183 195.565 481.765 197.544C486.409 199.523 490.991 200.513 495.512 200.513C500.962 200.513 505.667 199.492 509.632 197.451C513.592 195.41 516.661 192.38 518.828 188.36C521.056 184.401 522.172 179.515 522.172 173.701V96.699L523.749 74.619ZM454.549 125.923V123.974C454.549 116.305 455.447 109.347 457.243 103.1C459.101 96.792 461.733 91.38 465.138 86.865C468.606 82.3505 472.786 78.8865 477.678 76.4745C482.57 74.0005 488.081 72.7635 494.212 72.7635C500.528 72.7635 506.038 73.877 510.743 76.1035C515.514 78.268 519.539 81.4535 522.823 85.659C526.162 89.803 528.795 94.813 530.718 100.688C532.635 106.564 533.966 113.213 534.707 120.635V129.17C534.027 136.53 532.695 143.148 530.718 149.024C528.795 154.899 526.162 159.909 522.823 164.053C519.539 168.197 515.514 171.382 510.743 173.608C505.978 175.773 500.404 176.856 494.026 176.856C488.019 176.856 482.57 175.588 477.678 173.052C472.848 170.516 468.699 166.96 465.231 162.383C461.764 157.806 459.101 152.425 457.243 146.24C455.447 139.993 454.549 133.221 454.549 125.923ZM471.733 123.974V125.923C471.733 130.932 472.229 135.633 473.219 140.024C474.272 144.415 475.851 148.281 477.957 151.621C480.124 154.961 482.88 157.589 486.224 159.507C489.567 161.362 493.562 162.29 498.206 162.29C503.905 162.29 508.611 161.084 512.325 158.672C516.04 156.26 518.983 153.074 521.151 149.116C523.379 145.158 525.111 140.859 526.352 136.22V113.862C525.671 110.46 524.615 107.182 523.193 104.028C521.832 100.812 520.035 97.967 517.807 95.493C515.639 92.9575 512.946 90.9475 509.722 89.463C506.503 87.9785 502.729 87.2365 498.391 87.2365C493.685 87.2365 489.629 88.226 486.224 90.205C482.88 92.1225 480.124 94.782 477.957 98.1835C475.851 101.523 474.272 105.42 473.219 109.873C472.229 114.264 471.733 118.965 471.733 123.974ZM630.568 74.619H646.172V172.866C646.172 181.711 644.375 189.256 640.786 195.503C637.196 201.75 632.18 206.481 625.738 209.697C619.36 212.975 611.991 214.615 603.631 214.615C600.162 214.615 596.077 214.058 591.371 212.945C586.725 211.893 582.145 210.068 577.624 207.47C573.164 204.935 569.419 201.503 566.386 197.173L575.392 186.968C579.607 192.04 584.002 195.565 588.583 197.544C593.228 199.523 597.809 200.513 602.329 200.513C607.781 200.513 612.487 199.492 616.451 197.451C620.411 195.41 623.48 192.38 625.647 188.36C627.875 184.401 628.992 179.515 628.992 173.701V96.699L630.568 74.619ZM561.37 125.923V123.974C561.37 116.305 562.266 109.347 564.063 103.1C565.92 96.792 568.553 91.38 571.957 86.865C575.427 82.3505 579.607 78.8865 584.498 76.4745C589.389 74.0005 594.9 72.7635 601.033 72.7635C607.345 72.7635 612.857 73.877 617.563 76.1035C622.333 78.268 626.358 81.4535 629.637 85.659C632.981 89.803 635.615 94.813 637.537 100.688C639.454 106.564 640.786 113.213 641.527 120.635V129.17C640.846 136.53 639.514 143.148 637.537 149.024C635.615 154.899 632.981 159.909 629.637 164.053C626.358 168.197 622.333 171.382 617.563 173.608C612.797 175.773 607.225 176.856 600.842 176.856C594.84 176.856 589.389 175.588 584.498 173.052C579.667 170.516 575.517 166.96 572.048 162.383C568.583 157.806 565.92 152.425 564.063 146.24C562.266 139.993 561.37 133.221 561.37 125.923ZM578.55 123.974V125.923C578.55 130.932 579.046 135.633 580.037 140.024C581.089 144.415 582.67 148.281 584.773 151.621C586.941 154.961 589.699 157.589 593.043 159.507C596.387 161.362 600.382 162.29 605.023 162.29C610.719 162.29 615.43 161.084 619.145 158.672C622.859 156.26 625.798 153.074 627.965 149.116C630.198 145.158 631.93 140.859 633.167 136.22V113.862C632.486 110.46 631.434 107.182 630.013 104.028C628.646 100.812 626.854 97.967 624.621 95.493C622.454 92.9575 619.76 90.9475 616.541 89.463C613.323 87.9785 609.543 87.2365 605.213 87.2365C600.502 87.2365 596.447 88.226 593.043 90.205C589.699 92.1225 586.941 94.782 584.773 98.1835C582.67 101.523 581.089 105.42 580.037 109.873C579.046 114.264 578.55 118.965 578.55 123.974ZM713.979 176.856C706.981 176.856 700.633 175.681 694.936 173.33C689.305 170.918 684.444 167.547 680.354 163.218C676.329 158.888 673.235 153.755 671.067 147.817C668.9 141.88 667.814 135.385 667.814 128.335V124.438C667.814 116.274 669.025 109.007 671.438 102.636C673.851 96.2045 677.135 90.7615 681.285 86.3085C685.435 81.8555 690.141 78.4845 695.402 76.1965C700.668 73.908 706.115 72.7635 711.752 72.7635C718.935 72.7635 725.128 74.0005 730.329 76.4745C735.591 78.9485 739.896 82.412 743.24 86.865C746.584 91.2565 749.062 96.452 750.669 102.451C752.281 108.388 753.087 114.883 753.087 121.933V129.634H678.031V115.625H735.901V114.326C735.651 109.873 734.725 105.543 733.113 101.338C731.566 97.132 729.088 93.6685 725.684 90.9475C722.279 88.226 717.634 86.865 711.752 86.865C707.847 86.865 704.258 87.7 700.974 89.37C697.695 90.978 694.876 93.3905 692.523 96.6065C690.171 99.8225 688.343 103.75 687.042 108.388C685.74 113.027 685.094 118.377 685.094 124.438V128.335C685.094 133.097 685.74 137.581 687.042 141.787C688.403 145.931 690.356 149.58 692.894 152.734C695.497 155.888 698.621 158.362 702.275 160.156C705.99 161.95 710.2 162.847 714.911 162.847C720.978 162.847 726.119 161.61 730.329 159.136C734.539 156.662 738.224 153.353 741.383 149.209L751.785 157.466C749.618 160.744 746.859 163.867 743.515 166.836C740.171 169.804 736.056 172.217 731.165 174.072C726.334 175.927 720.607 176.856 713.979 176.856ZM790.332 90.3905V175H773.146V74.619H789.866L790.332 90.3905ZM821.725 74.0625L821.635 90.0195C820.208 89.7105 818.846 89.5245 817.55 89.463C816.308 89.339 814.887 89.2775 813.275 89.2775C809.31 89.2775 805.811 89.896 802.777 91.133C799.743 92.37 797.175 94.1015 795.068 96.328C792.965 98.5545 791.293 101.214 790.052 104.306C788.875 107.337 788.104 110.677 787.729 114.326L782.903 117.109C782.903 111.048 783.489 105.358 784.665 100.039C785.907 94.72 787.794 90.0195 790.332 85.9375C792.87 81.7935 796.089 78.5775 799.994 76.289C803.953 73.939 808.659 72.7635 814.111 72.7635C815.347 72.7635 816.774 72.9185 818.386 73.2275C819.993 73.475 821.109 73.7535 821.725 74.0625Z" fill="#7B00FF"/>
<path d="M425.515 122.5C425.515 148.733 404.223 170 377.958 170C351.692 170 330.4 148.733 330.4 122.5C330.4 96.2665 351.692 75 377.958 75C404.223 75 425.515 96.2665 425.515 122.5Z" stroke="#7B00FF" stroke-width="2"/>
<path fill-rule="evenodd" clip-rule="evenodd" d="M377.958 154C395.376 154 409.496 139.897 409.496 122.5C409.496 105.103 395.376 91 377.958 91C360.539 91 346.419 105.103 346.419 122.5C346.419 139.897 360.539 154 377.958 154ZM364.441 121C371.077 121 376.456 115.627 376.456 109C376.456 102.372 371.077 97 364.441 97C357.806 97 352.427 102.372 352.427 109C352.427 115.627 357.806 121 364.441 121Z" fill="#7B00FF"/>
</svg>
