<svg width="306" height="80" viewBox="0 0 306 80" fill="none" xmlns="http://www.w3.org/2000/svg">
<path d="M13.9091 51.2727L13.8182 44.6364H14.9091L30.1818 29.0909H36.8182L20.5455 45.5455H20.0909L13.9091 51.2727ZM8.90909 64V17.4545H14.2727V64H8.90909ZM31.0909 64L17.4545 46.7273L21.2727 43L37.9091 64H31.0909ZM43.7216 64V29.0909H48.9034V34.5455H49.358C50.0852 32.6818 51.2595 31.2348 52.8807 30.2045C54.5019 29.1591 56.4489 28.6364 58.7216 28.6364C61.0246 28.6364 62.9413 29.1591 64.4716 30.2045C66.017 31.2348 67.2216 32.6818 68.0852 34.5455H68.4489C69.3428 32.7424 70.6837 31.3106 72.4716 30.25C74.2595 29.1742 76.4034 28.6364 78.9034 28.6364C82.0246 28.6364 84.5777 29.6136 86.5625 31.5682C88.5474 33.5076 89.5398 36.5303 89.5398 40.6364V64H84.1761V40.6364C84.1761 38.0606 83.4716 36.2197 82.0625 35.1136C80.6534 34.0076 78.9943 33.4545 77.0852 33.4545C74.6307 33.4545 72.7292 34.197 71.3807 35.6818C70.0322 37.1515 69.358 39.0152 69.358 41.2727V64H63.9034V40.0909C63.9034 38.1061 63.2595 36.5076 61.9716 35.2955C60.6837 34.0682 59.0246 33.4545 56.9943 33.4545C55.6004 33.4545 54.2973 33.8258 53.0852 34.5682C51.8883 35.3106 50.9186 36.3409 50.1761 37.6591C49.4489 38.9621 49.0852 40.4697 49.0852 42.1818V64H43.7216ZM104.71 17.4545V64H99.3466V17.4545H104.71Z" fill="#AB47BC"/>
<path d="M181 77.8182C178.409 77.8182 176.182 77.4848 174.318 76.8182C172.455 76.1667 170.902 75.303 169.659 74.2273C168.432 73.1667 167.455 72.0303 166.727 70.8182L171 67.8182C171.485 68.4545 172.098 69.1818 172.841 70C173.583 70.8333 174.598 71.553 175.886 72.1591C177.189 72.7803 178.894 73.0909 181 73.0909C183.818 73.0909 186.144 72.4091 187.977 71.0455C189.811 69.6818 190.727 67.5455 190.727 64.6364V57.5455H190.273C189.879 58.1818 189.318 58.9697 188.591 59.9091C187.879 60.8333 186.848 61.6591 185.5 62.3864C184.167 63.0985 182.364 63.4545 180.091 63.4545C177.273 63.4545 174.742 62.7879 172.5 61.4545C170.273 60.1212 168.508 58.1818 167.205 55.6364C165.917 53.0909 165.273 50 165.273 46.3636C165.273 42.7879 165.902 39.6742 167.159 37.0227C168.417 34.3561 170.167 32.2955 172.409 30.8409C174.652 29.3712 177.242 28.6364 180.182 28.6364C182.455 28.6364 184.258 29.0152 185.591 29.7727C186.939 30.5152 187.97 31.3636 188.682 32.3182C189.409 33.2576 189.97 34.0303 190.364 34.6364H190.909V29.0909H196.091V65C196.091 68 195.409 70.4394 194.045 72.3182C192.697 74.2121 190.879 75.5985 188.591 76.4773C186.318 77.3712 183.788 77.8182 181 77.8182ZM180.818 58.6364C182.97 58.6364 184.788 58.1439 186.273 57.1591C187.758 56.1742 188.886 54.7576 189.659 52.9091C190.432 51.0606 190.818 48.8485 190.818 46.2727C190.818 43.7576 190.439 41.5379 189.682 39.6136C188.924 37.6894 187.803 36.1818 186.318 35.0909C184.833 34 183 33.4545 180.818 33.4545C178.545 33.4545 176.652 34.0303 175.136 35.1818C173.636 36.3333 172.508 37.8788 171.75 39.8182C171.008 41.7576 170.636 43.9091 170.636 46.2727C170.636 48.697 171.015 50.8409 171.773 52.7045C172.545 54.553 173.682 56.0076 175.182 57.0682C176.697 58.1136 178.576 58.6364 180.818 58.6364ZM220 77.8182C217.409 77.8182 215.182 77.4848 213.318 76.8182C211.455 76.1667 209.902 75.303 208.659 74.2273C207.432 73.1667 206.455 72.0303 205.727 70.8182L210 67.8182C210.485 68.4545 211.098 69.1818 211.841 70C212.583 70.8333 213.598 71.553 214.886 72.1591C216.189 72.7803 217.894 73.0909 220 73.0909C222.818 73.0909 225.144 72.4091 226.977 71.0455C228.811 69.6818 229.727 67.5455 229.727 64.6364V57.5455H229.273C228.879 58.1818 228.318 58.9697 227.591 59.9091C226.879 60.8333 225.848 61.6591 224.5 62.3864C223.167 63.0985 221.364 63.4545 219.091 63.4545C216.273 63.4545 213.742 62.7879 211.5 61.4545C209.273 60.1212 207.508 58.1818 206.205 55.6364C204.917 53.0909 204.273 50 204.273 46.3636C204.273 42.7879 204.902 39.6742 206.159 37.0227C207.417 34.3561 209.167 32.2955 211.409 30.8409C213.652 29.3712 216.242 28.6364 219.182 28.6364C221.455 28.6364 223.258 29.0152 224.591 29.7727C225.939 30.5152 226.97 31.3636 227.682 32.3182C228.409 33.2576 228.97 34.0303 229.364 34.6364H229.909V29.0909H235.091V65C235.091 68 234.409 70.4394 233.045 72.3182C231.697 74.2121 229.879 75.5985 227.591 76.4773C225.318 77.3712 222.788 77.8182 220 77.8182ZM219.818 58.6364C221.97 58.6364 223.788 58.1439 225.273 57.1591C226.758 56.1742 227.886 54.7576 228.659 52.9091C229.432 51.0606 229.818 48.8485 229.818 46.2727C229.818 43.7576 229.439 41.5379 228.682 39.6136C227.924 37.6894 226.803 36.1818 225.318 35.0909C223.833 34 222 33.4545 219.818 33.4545C217.545 33.4545 215.652 34.0303 214.136 35.1818C212.636 36.3333 211.508 37.8788 210.75 39.8182C210.008 41.7576 209.636 43.9091 209.636 46.2727C209.636 48.697 210.015 50.8409 210.773 52.7045C211.545 54.553 212.682 56.0076 214.182 57.0682C215.697 58.1136 217.576 58.6364 219.818 58.6364ZM259.545 64.7273C256.182 64.7273 253.28 63.9848 250.841 62.5C248.417 61 246.545 58.9091 245.227 56.2273C243.924 53.5303 243.273 50.3939 243.273 46.8182C243.273 43.2424 243.924 40.0909 245.227 37.3636C246.545 34.6212 248.379 32.4848 250.727 30.9545C253.091 29.4091 255.848 28.6364 259 28.6364C260.818 28.6364 262.614 28.9394 264.386 29.5455C266.159 30.1515 267.773 31.1364 269.227 32.5C270.682 33.8485 271.841 35.6364 272.705 37.8636C273.568 40.0909 274 42.8333 274 46.0909V48.3636H247.091V43.7273H268.545C268.545 41.7576 268.152 40 267.364 38.4545C266.591 36.9091 265.485 35.6894 264.045 34.7955C262.621 33.9015 260.939 33.4545 259 33.4545C256.864 33.4545 255.015 33.9848 253.455 35.0455C251.909 36.0909 250.72 37.4545 249.886 39.1364C249.053 40.8182 248.636 42.6212 248.636 44.5455V47.6364C248.636 50.2727 249.091 52.5076 250 54.3409C250.924 56.1591 252.205 57.5455 253.841 58.5C255.477 59.4394 257.379 59.9091 259.545 59.9091C260.955 59.9091 262.227 59.7121 263.364 59.3182C264.515 58.9091 265.508 58.303 266.341 57.5C267.174 56.6818 267.818 55.6667 268.273 54.4545L273.455 55.9091C272.909 57.6667 271.992 59.2121 270.705 60.5455C269.417 61.8636 267.826 62.8939 265.932 63.6364C264.038 64.3636 261.909 64.7273 259.545 64.7273ZM282.159 64V29.0909H287.341V34.3636H287.705C288.341 32.6364 289.492 31.2348 291.159 30.1591C292.826 29.0833 294.705 28.5455 296.795 28.5455C297.189 28.5455 297.682 28.553 298.273 28.5682C298.864 28.5833 299.311 28.6061 299.614 28.6364V34.0909C299.432 34.0455 299.015 33.9773 298.364 33.8864C297.727 33.7803 297.053 33.7273 296.341 33.7273C294.644 33.7273 293.129 34.0833 291.795 34.7955C290.477 35.4924 289.432 36.4621 288.659 37.7045C287.902 38.9318 287.523 40.3333 287.523 41.9091V64H282.159Z" fill="#AB47BC"/>
<circle cx="136" cy="44" r="19" stroke="#AB47BC" stroke-width="2"/>
<mask id="path-4-inside-1_1_19" fill="white">
<path fill-rule="evenodd" clip-rule="evenodd" d="M135.858 56.9078C142.909 56.9078 148.624 51.1923 148.624 44.1418C148.624 37.0914 142.909 31.3759 135.858 31.3759C128.808 31.3759 123.092 37.0914 123.092 44.1418C123.092 51.1923 128.808 56.9078 135.858 56.9078ZM130.752 44.1419C133.572 44.1419 135.858 41.8556 135.858 39.0355C135.858 36.2153 133.572 33.9291 130.752 33.9291C127.932 33.9291 125.645 36.2153 125.645 39.0355C125.645 41.8556 127.932 44.1419 130.752 44.1419Z"/>
</mask>
<path fill-rule="evenodd" clip-rule="evenodd" d="M135.858 56.9078C142.909 56.9078 148.624 51.1923 148.624 44.1418C148.624 37.0914 142.909 31.3759 135.858 31.3759C128.808 31.3759 123.092 37.0914 123.092 44.1418C123.092 51.1923 128.808 56.9078 135.858 56.9078ZM130.752 44.1419C133.572 44.1419 135.858 41.8556 135.858 39.0355C135.858 36.2153 133.572 33.9291 130.752 33.9291C127.932 33.9291 125.645 36.2153 125.645 39.0355C125.645 41.8556 127.932 44.1419 130.752 44.1419Z" fill="#AB47BC"/>
<path d="M147.624 44.1418C147.624 50.64 142.356 55.9078 135.858 55.9078V57.9078C143.461 57.9078 149.624 51.7446 149.624 44.1418H147.624ZM135.858 32.3759C142.356 32.3759 147.624 37.6437 147.624 44.1418H149.624C149.624 36.5391 143.461 30.3759 135.858 30.3759V32.3759ZM124.092 44.1418C124.092 37.6437 129.36 32.3759 135.858 32.3759V30.3759C128.255 30.3759 122.092 36.5391 122.092 44.1418H124.092ZM135.858 55.9078C129.36 55.9078 124.092 50.64 124.092 44.1418H122.092C122.092 51.7446 128.255 57.9078 135.858 57.9078V55.9078ZM134.858 39.0355C134.858 41.3034 133.02 43.1419 130.752 43.1419V45.1419C134.124 45.1419 136.858 42.4079 136.858 39.0355H134.858ZM130.752 34.9291C133.02 34.9291 134.858 36.7676 134.858 39.0355H136.858C136.858 35.663 134.124 32.9291 130.752 32.9291V34.9291ZM126.645 39.0355C126.645 36.7676 128.484 34.9291 130.752 34.9291V32.9291C127.379 32.9291 124.645 35.663 124.645 39.0355H126.645ZM130.752 43.1419C128.484 43.1419 126.645 41.3034 126.645 39.0355H124.645C124.645 42.4079 127.379 45.1419 130.752 45.1419V43.1419Z" fill="#AB47BC" mask="url(#path-4-inside-1_1_19)"/>
</svg>
