<svg width="128" height="128" viewBox="0 0 128 128" fill="none" xmlns="http://www.w3.org/2000/svg">
<circle cx="64" cy="64" r="59" stroke="#AB47BC" stroke-width="4"/>
<mask id="path-2-inside-1_1_17" fill="white">
<path fill-rule="evenodd" clip-rule="evenodd" d="M63.5674 103.369C85.0713 103.369 102.504 85.9365 102.504 64.4326C102.504 42.9287 85.0713 25.4964 63.5674 25.4964C42.0635 25.4964 24.6312 42.9287 24.6312 64.4326C24.6312 85.9365 42.0635 103.369 63.5674 103.369ZM47.9929 64.4326C56.5945 64.4326 63.5674 57.4597 63.5674 48.8581C63.5674 40.2566 56.5945 33.2837 47.9929 33.2837C39.3914 33.2837 32.4185 40.2566 32.4185 48.8581C32.4185 57.4597 39.3914 64.4326 47.9929 64.4326Z"/>
</mask>
<path fill-rule="evenodd" clip-rule="evenodd" d="M63.5674 103.369C85.0713 103.369 102.504 85.9365 102.504 64.4326C102.504 42.9287 85.0713 25.4964 63.5674 25.4964C42.0635 25.4964 24.6312 42.9287 24.6312 64.4326C24.6312 85.9365 42.0635 103.369 63.5674 103.369ZM47.9929 64.4326C56.5945 64.4326 63.5674 57.4597 63.5674 48.8581C63.5674 40.2566 56.5945 33.2837 47.9929 33.2837C39.3914 33.2837 32.4185 40.2566 32.4185 48.8581C32.4185 57.4597 39.3914 64.4326 47.9929 64.4326Z" fill="#AB47BC"/>
<path d="M101.504 64.4326C101.504 85.3842 84.519 102.369 63.5674 102.369V104.369C85.6235 104.369 103.504 86.4887 103.504 64.4326H101.504ZM63.5674 26.4964C84.519 26.4964 101.504 43.481 101.504 64.4326H103.504C103.504 42.3765 85.6235 24.4964 63.5674 24.4964V26.4964ZM25.6312 64.4326C25.6312 43.481 42.6158 26.4964 63.5674 26.4964V24.4964C41.5113 24.4964 23.6312 42.3765 23.6312 64.4326H25.6312ZM63.5674 102.369C42.6158 102.369 25.6312 85.3842 25.6312 64.4326H23.6312C23.6312 86.4887 41.5113 104.369 63.5674 104.369V102.369ZM62.5674 48.8581C62.5674 56.9074 56.0422 63.4326 47.9929 63.4326V65.4326C57.1467 65.4326 64.5674 58.012 64.5674 48.8581H62.5674ZM47.9929 34.2837C56.0422 34.2837 62.5674 40.8089 62.5674 48.8581H64.5674C64.5674 39.7043 57.1467 32.2837 47.9929 32.2837V34.2837ZM33.4185 48.8581C33.4185 40.8089 39.9437 34.2837 47.9929 34.2837V32.2837C38.8391 32.2837 31.4185 39.7043 31.4185 48.8581H33.4185ZM47.9929 63.4326C39.9437 63.4326 33.4185 56.9074 33.4185 48.8581H31.4185C31.4185 58.012 38.8391 65.4326 47.9929 65.4326V63.4326Z" fill="#AB47BC" mask="url(#path-2-inside-1_1_17)"/>
</svg>
